<svg xmlns="http://www.w3.org/2000/svg" viewBox="0 0 284.22 102.64"><defs><style>.cls-1{fill:#424242;}.cls-2{fill:#ee2e7b;}.cls-3{fill:#53c0a6;}</style></defs><g id="Layer_2" data-name="Layer 2"><g id="Layer_1-2" data-name="Layer 1"><path class="cls-1" d="M40.6,28.44h8.86v47.2H40.6V70.18c-4.43,3.71-10,6.49-15.87,6.49A24.79,24.79,0,0,1,7.21,69.56a24.89,24.89,0,0,1,0-35,24.79,24.79,0,0,1,17.52-7.11c5.88,0,11.44,2.78,15.87,6.5Zm0,23.6A15.87,15.87,0,1,0,24.73,68,16,16,0,0,0,40.6,52Z"/><path class="cls-1" d="M143.32,50.29V75.64h-8.86V50.29a14,14,0,1,0-27.92,0V75.64H97.67V50.29a13.91,13.91,0,1,0-27.82,0V75.64H61V28.44h8.86V33c4-3.1,8.86-5.47,13.91-5.47a23.07,23.07,0,0,1,16.18,7,16.8,16.8,0,0,1,2.16,2.58,27.92,27.92,0,0,1,2.27-2.58,23.07,23.07,0,0,1,16.18-7,22.69,22.69,0,0,1,22.77,22.78Z"/><path class="cls-1" d="M202.24,52a24.63,24.63,0,0,1-24.73,24.63c-5.88,0-11.44-2.78-15.87-6.49v32.46h-8.87V28.44h8.87v5.47c4.43-3.72,10-6.5,15.87-6.5A24.63,24.63,0,0,1,202.24,52Zm-8.86,0a15.87,15.87,0,1,0-15.87,16A16,16,0,0,0,193.38,52Z"/><path class="cls-1" d="M211.19,75.64V0h8.86V75.64Z"/><path class="cls-2" d="M246.63,102.64h-9.58l11-27-19.16-47.2h9.58l14.32,35.45,14.33-35.45h9.58Z"/><path class="cls-3" d="M254.12,102.64H252l30.08-74.2h2.1Z"/><circle class="cls-3" cx="24.58" cy="51.8" r="10.75"/></g></g></svg>